<mxfile host="65bd71144e">
    <diagram id="Amquuo6YpdLtKz7LeLt5" name="Page-1">
        <mxGraphModel dx="1179" dy="1847" grid="1" gridSize="10" guides="1" tooltips="1" connect="1" arrows="1" fold="1" page="1" pageScale="1" pageWidth="827" pageHeight="1169" math="0" shadow="0">
            <root>
                <mxCell id="0"/>
                <mxCell id="1" parent="0"/>
                <mxCell id="69" value="" style="rounded=0;whiteSpace=wrap;html=1;fillColor=#dae8fc;strokeColor=#6c8ebf;" vertex="1" parent="1">
                    <mxGeometry y="-50" width="1150" height="1060" as="geometry"/>
                </mxCell>
                <mxCell id="37" value="ALT" style="shape=umlFrame;whiteSpace=wrap;html=1;width=50;height=30;boundedLbl=1;verticalAlign=middle;align=left;spacingLeft=5;" vertex="1" parent="1">
                    <mxGeometry x="60" y="450" width="1050" height="460" as="geometry"/>
                </mxCell>
                <mxCell id="2" value="Diagram authentification" style="shape=umlFrame;whiteSpace=wrap;html=1;width=160;height=40;boundedLbl=1;verticalAlign=middle;align=left;spacingLeft=5;" vertex="1" parent="1">
                    <mxGeometry x="10" y="-40" width="1110" height="1030" as="geometry"/>
                </mxCell>
                <mxCell id="53" value="ALT" style="shape=umlFrame;whiteSpace=wrap;html=1;width=90;height=30;boundedLbl=1;verticalAlign=middle;align=left;spacingLeft=5;" vertex="1" parent="1">
                    <mxGeometry x="90" y="600" width="1000" height="180" as="geometry"/>
                </mxCell>
                <mxCell id="4" value="Actor" style="shape=umlActor;verticalLabelPosition=bottom;verticalAlign=top;html=1;" vertex="1" parent="1">
                    <mxGeometry x="210" y="80" width="30" height="60" as="geometry"/>
                </mxCell>
                <mxCell id="5" value="" style="html=1;points=[];perimeter=orthogonalPerimeter;" vertex="1" parent="1">
                    <mxGeometry x="220" y="160" width="10" height="660" as="geometry"/>
                </mxCell>
                <mxCell id="9" value="Interface" style="shape=umlLifeline;perimeter=lifelinePerimeter;whiteSpace=wrap;html=1;container=1;collapsible=0;recursiveResize=0;outlineConnect=0;" vertex="1" parent="1">
                    <mxGeometry x="380" y="110" width="100" height="690" as="geometry"/>
                </mxCell>
                <mxCell id="12" value="" style="html=1;points=[];perimeter=orthogonalPerimeter;" vertex="1" parent="9">
                    <mxGeometry x="45" y="150" width="10" height="30" as="geometry"/>
                </mxCell>
                <mxCell id="15" value="" style="html=1;points=[];perimeter=orthogonalPerimeter;" vertex="1" parent="9">
                    <mxGeometry x="45" y="210" width="10" height="30" as="geometry"/>
                </mxCell>
                <mxCell id="19" value="" style="html=1;points=[];perimeter=orthogonalPerimeter;" vertex="1" parent="9">
                    <mxGeometry x="45" y="250" width="10" height="30" as="geometry"/>
                </mxCell>
                <mxCell id="22" value="" style="html=1;points=[];perimeter=orthogonalPerimeter;" vertex="1" parent="9">
                    <mxGeometry x="45" y="300" width="10" height="30" as="geometry"/>
                </mxCell>
                <mxCell id="41" value="" style="html=1;points=[];perimeter=orthogonalPerimeter;" vertex="1" parent="9">
                    <mxGeometry x="45" y="350" width="10" height="30" as="geometry"/>
                </mxCell>
                <mxCell id="59" value="" style="html=1;points=[];perimeter=orthogonalPerimeter;" vertex="1" parent="9">
                    <mxGeometry x="45" y="510" width="10" height="30" as="geometry"/>
                </mxCell>
                <mxCell id="67" value="" style="html=1;points=[];perimeter=orthogonalPerimeter;" vertex="1" parent="9">
                    <mxGeometry x="45" y="590" width="10" height="30" as="geometry"/>
                </mxCell>
                <mxCell id="10" value="Conteoleur" style="shape=umlLifeline;perimeter=lifelinePerimeter;whiteSpace=wrap;html=1;container=1;collapsible=0;recursiveResize=0;outlineConnect=0;" vertex="1" parent="1">
                    <mxGeometry x="630" y="110" width="100" height="690" as="geometry"/>
                </mxCell>
                <mxCell id="33" value="" style="html=1;points=[];perimeter=orthogonalPerimeter;" vertex="1" parent="10">
                    <mxGeometry x="45" y="310" width="10" height="30" as="geometry"/>
                </mxCell>
                <mxCell id="35" style="edgeStyle=none;html=1;entryX=1.26;entryY=0.847;entryDx=0;entryDy=0;entryPerimeter=0;" edge="1" parent="10" source="33" target="33">
                    <mxGeometry relative="1" as="geometry"/>
                </mxCell>
                <mxCell id="39" value="userName ou password non valide" style="html=1;verticalAlign=bottom;endArrow=open;dashed=1;endSize=8;entryX=1.3;entryY=0.367;entryDx=0;entryDy=0;entryPerimeter=0;" edge="1" parent="10" target="41">
                    <mxGeometry x="0.1146" y="-1" relative="1" as="geometry">
                        <mxPoint x="45" y="360" as="sourcePoint"/>
                        <mxPoint x="-143.4000000000001" y="361.53999999999996" as="targetPoint"/>
                        <mxPoint as="offset"/>
                    </mxGeometry>
                </mxCell>
                <mxCell id="47" value="" style="html=1;points=[];perimeter=orthogonalPerimeter;" vertex="1" parent="10">
                    <mxGeometry x="45" y="440" width="10" height="30" as="geometry"/>
                </mxCell>
                <mxCell id="56" value="" style="html=1;points=[];perimeter=orthogonalPerimeter;" vertex="1" parent="10">
                    <mxGeometry x="45" y="500" width="10" height="30" as="geometry"/>
                </mxCell>
                <mxCell id="65" value="" style="html=1;points=[];perimeter=orthogonalPerimeter;" vertex="1" parent="10">
                    <mxGeometry x="45" y="580" width="10" height="30" as="geometry"/>
                </mxCell>
                <mxCell id="11" value="Base de donnees" style="shape=umlLifeline;perimeter=lifelinePerimeter;whiteSpace=wrap;html=1;container=1;collapsible=0;recursiveResize=0;outlineConnect=0;" vertex="1" parent="1">
                    <mxGeometry x="900" y="110" width="100" height="700" as="geometry"/>
                </mxCell>
                <mxCell id="49" value="" style="html=1;points=[];perimeter=orthogonalPerimeter;" vertex="1" parent="11">
                    <mxGeometry x="45" y="440" width="10" height="30" as="geometry"/>
                </mxCell>
                <mxCell id="51" style="edgeStyle=none;html=1;entryX=1.54;entryY=0.807;entryDx=0;entryDy=0;entryPerimeter=0;" edge="1" parent="11" source="49" target="49">
                    <mxGeometry relative="1" as="geometry"/>
                </mxCell>
                <mxCell id="54" value="" style="html=1;points=[];perimeter=orthogonalPerimeter;" vertex="1" parent="11">
                    <mxGeometry x="45" y="500" width="10" height="30" as="geometry"/>
                </mxCell>
                <mxCell id="63" value="" style="html=1;points=[];perimeter=orthogonalPerimeter;" vertex="1" parent="11">
                    <mxGeometry x="45" y="580" width="10" height="30" as="geometry"/>
                </mxCell>
                <mxCell id="13" value="interface&amp;nbsp; de connexion" style="html=1;verticalAlign=bottom;endArrow=open;dashed=1;endSize=8;entryX=1.16;entryY=0.169;entryDx=0;entryDy=0;entryPerimeter=0;" edge="1" parent="1" target="5">
                    <mxGeometry x="-0.0022" relative="1" as="geometry">
                        <mxPoint x="420" y="270" as="sourcePoint"/>
                        <mxPoint x="340" y="270" as="targetPoint"/>
                        <mxPoint as="offset"/>
                    </mxGeometry>
                </mxCell>
                <mxCell id="14" value="" style="endArrow=open;endFill=1;endSize=12;html=1;entryX=0.02;entryY=0.313;entryDx=0;entryDy=0;entryPerimeter=0;" edge="1" parent="1" target="15">
                    <mxGeometry width="160" relative="1" as="geometry">
                        <mxPoint x="230" y="330" as="sourcePoint"/>
                        <mxPoint x="400" y="330" as="targetPoint"/>
                    </mxGeometry>
                </mxCell>
                <mxCell id="16" value="Saisir UserName" style="edgeLabel;html=1;align=center;verticalAlign=middle;resizable=0;points=[];" vertex="1" connectable="0" parent="14">
                    <mxGeometry x="-0.295" y="1" relative="1" as="geometry">
                        <mxPoint x="21" y="-9" as="offset"/>
                    </mxGeometry>
                </mxCell>
                <mxCell id="17" value="" style="endArrow=open;endFill=1;endSize=12;html=1;entryX=0.02;entryY=0.313;entryDx=0;entryDy=0;entryPerimeter=0;" edge="1" parent="1">
                    <mxGeometry width="160" relative="1" as="geometry">
                        <mxPoint x="230" y="370.61" as="sourcePoint"/>
                        <mxPoint x="425.20000000000005" y="369.9999999999999" as="targetPoint"/>
                    </mxGeometry>
                </mxCell>
                <mxCell id="18" value="Saisir password" style="edgeLabel;html=1;align=center;verticalAlign=middle;resizable=0;points=[];" vertex="1" connectable="0" parent="17">
                    <mxGeometry x="-0.295" y="1" relative="1" as="geometry">
                        <mxPoint x="21" y="-9" as="offset"/>
                    </mxGeometry>
                </mxCell>
                <mxCell id="23" value="" style="endArrow=block;endFill=1;html=1;edgeStyle=orthogonalEdgeStyle;align=left;verticalAlign=top;exitX=1;exitY=0.394;exitDx=0;exitDy=0;exitPerimeter=0;entryX=0.02;entryY=0.353;entryDx=0;entryDy=0;entryPerimeter=0;" edge="1" parent="1" source="5" target="22">
                    <mxGeometry x="-1" relative="1" as="geometry">
                        <mxPoint x="260" y="420" as="sourcePoint"/>
                        <mxPoint x="420" y="420" as="targetPoint"/>
                    </mxGeometry>
                </mxCell>
                <mxCell id="25" value="Validation" style="edgeLabel;html=1;align=center;verticalAlign=middle;resizable=0;points=[];" vertex="1" connectable="0" parent="23">
                    <mxGeometry x="-0.1542" y="2" relative="1" as="geometry">
                        <mxPoint y="-8" as="offset"/>
                    </mxGeometry>
                </mxCell>
                <mxCell id="32" value="" style="html=1;verticalAlign=bottom;labelBackgroundColor=none;endArrow=block;endFill=1;endSize=6;align=left;entryX=0.06;entryY=0.26;entryDx=0;entryDy=0;entryPerimeter=0;" edge="1" parent="1" target="33">
                    <mxGeometry x="-1" relative="1" as="geometry">
                        <mxPoint x="440" y="428" as="sourcePoint"/>
                        <mxPoint x="600" y="430" as="targetPoint"/>
                    </mxGeometry>
                </mxCell>
                <mxCell id="34" value="UserName + password" style="text;align=center;fontStyle=0;verticalAlign=middle;spacingLeft=3;spacingRight=3;strokeColor=none;rotatable=0;points=[[0,0.5],[1,0.5]];portConstraint=eastwest;" vertex="1" parent="1">
                    <mxGeometry x="480" y="410" width="140" height="16" as="geometry"/>
                </mxCell>
                <mxCell id="36" value="Verification" style="text;align=center;fontStyle=0;verticalAlign=middle;spacingLeft=3;spacingRight=3;strokeColor=none;rotatable=0;points=[[0,0.5],[1,0.5]];portConstraint=eastwest;" vertex="1" parent="1">
                    <mxGeometry x="710" y="426" width="80" height="26" as="geometry"/>
                </mxCell>
                <mxCell id="38" value="" style="html=1;points=[];perimeter=orthogonalPerimeter;" vertex="1" parent="1">
                    <mxGeometry x="675" y="460" width="10" height="30" as="geometry"/>
                </mxCell>
                <mxCell id="43" value="" style="html=1;verticalAlign=bottom;endArrow=open;dashed=1;endSize=8;entryX=1.1;entryY=0.487;entryDx=0;entryDy=0;entryPerimeter=0;" edge="1" parent="1" target="5">
                    <mxGeometry x="-0.25" y="-52" relative="1" as="geometry">
                        <mxPoint x="420" y="480" as="sourcePoint"/>
                        <mxPoint x="340" y="480" as="targetPoint"/>
                        <mxPoint as="offset"/>
                    </mxGeometry>
                </mxCell>
                <mxCell id="45" value="message d'erreur" style="text;align=center;fontStyle=0;verticalAlign=middle;spacingLeft=3;spacingRight=3;strokeColor=none;rotatable=0;points=[[0,0.5],[1,0.5]];portConstraint=eastwest;" vertex="1" parent="1">
                    <mxGeometry x="270" y="452" width="100" height="26" as="geometry"/>
                </mxCell>
                <mxCell id="46" value="" style="endArrow=none;dashed=1;html=1;exitX=-0.002;exitY=0.16;exitDx=0;exitDy=0;exitPerimeter=0;entryX=1.002;entryY=0.159;entryDx=0;entryDy=0;entryPerimeter=0;" edge="1" parent="1" source="37" target="37">
                    <mxGeometry width="50" height="50" relative="1" as="geometry">
                        <mxPoint x="410" y="640" as="sourcePoint"/>
                        <mxPoint x="460" y="590" as="targetPoint"/>
                    </mxGeometry>
                </mxCell>
                <mxCell id="48" value="" style="html=1;verticalAlign=bottom;labelBackgroundColor=none;endArrow=block;endFill=1;endSize=6;align=left;entryX=0.18;entryY=0.353;entryDx=0;entryDy=0;entryPerimeter=0;" edge="1" parent="1" target="49">
                    <mxGeometry x="-1" relative="1" as="geometry">
                        <mxPoint x="685" y="560.2" as="sourcePoint"/>
                        <mxPoint x="920.5999999999999" y="560.0000000000002" as="targetPoint"/>
                    </mxGeometry>
                </mxCell>
                <mxCell id="50" value="UserName + password" style="text;align=center;fontStyle=0;verticalAlign=middle;spacingLeft=3;spacingRight=3;strokeColor=none;rotatable=0;points=[[0,0.5],[1,0.5]];portConstraint=eastwest;" vertex="1" parent="1">
                    <mxGeometry x="740" y="540" width="140" height="16" as="geometry"/>
                </mxCell>
                <mxCell id="52" value="Verification" style="text;align=center;fontStyle=0;verticalAlign=middle;spacingLeft=3;spacingRight=3;strokeColor=none;rotatable=0;points=[[0,0.5],[1,0.5]];portConstraint=eastwest;" vertex="1" parent="1">
                    <mxGeometry x="980" y="556" width="80" height="26" as="geometry"/>
                </mxCell>
                <mxCell id="55" value="Utilisateur introuvablet" style="html=1;verticalAlign=bottom;endArrow=open;dashed=1;endSize=8;entryX=1.18;entryY=0.353;entryDx=0;entryDy=0;entryPerimeter=0;" edge="1" parent="1" target="56">
                    <mxGeometry x="0.1146" y="-1" relative="1" as="geometry">
                        <mxPoint x="947" y="620" as="sourcePoint"/>
                        <mxPoint x="710" y="621" as="targetPoint"/>
                        <mxPoint as="offset"/>
                    </mxGeometry>
                </mxCell>
                <mxCell id="58" value="Utilisateur introuvablet" style="html=1;verticalAlign=bottom;endArrow=open;dashed=1;endSize=8;exitX=0.06;exitY=0.673;exitDx=0;exitDy=0;exitPerimeter=0;entryX=0.98;entryY=0.367;entryDx=0;entryDy=0;entryPerimeter=0;" edge="1" parent="1" source="56" target="59">
                    <mxGeometry x="0.1146" y="-1" relative="1" as="geometry">
                        <mxPoint x="640" y="631" as="sourcePoint"/>
                        <mxPoint x="470" y="631" as="targetPoint"/>
                        <mxPoint as="offset"/>
                    </mxGeometry>
                </mxCell>
                <mxCell id="60" value="message d'erreur" style="html=1;verticalAlign=bottom;endArrow=open;dashed=1;endSize=8;entryX=1.08;entryY=0.728;entryDx=0;entryDy=0;entryPerimeter=0;exitX=0.18;exitY=0.607;exitDx=0;exitDy=0;exitPerimeter=0;" edge="1" parent="1" source="59" target="5">
                    <mxGeometry x="0.1146" y="-1" relative="1" as="geometry">
                        <mxPoint x="400" y="640.18" as="sourcePoint"/>
                        <mxPoint x="259.99999999999994" y="640.0000000000001" as="targetPoint"/>
                        <mxPoint as="offset"/>
                    </mxGeometry>
                </mxCell>
                <mxCell id="61" value="" style="endArrow=none;dashed=1;html=1;entryX=1.003;entryY=0.45;entryDx=0;entryDy=0;entryPerimeter=0;exitX=0.002;exitY=0.445;exitDx=0;exitDy=0;exitPerimeter=0;" edge="1" parent="1" source="53" target="53">
                    <mxGeometry width="50" height="50" relative="1" as="geometry">
                        <mxPoint x="100" y="681" as="sourcePoint"/>
                        <mxPoint x="1060" y="680" as="targetPoint"/>
                    </mxGeometry>
                </mxCell>
                <mxCell id="64" value="Utilisateur&amp;nbsp; existant" style="html=1;verticalAlign=bottom;endArrow=open;dashed=1;endSize=8;entryX=1.141;entryY=0.359;entryDx=0;entryDy=0;entryPerimeter=0;" edge="1" parent="1" target="65">
                    <mxGeometry x="0.1146" y="-1" relative="1" as="geometry">
                        <mxPoint x="945.2" y="700" as="sourcePoint"/>
                        <mxPoint x="700" y="701" as="targetPoint"/>
                        <mxPoint as="offset"/>
                    </mxGeometry>
                </mxCell>
                <mxCell id="66" value="Utilisateur existant" style="html=1;verticalAlign=bottom;endArrow=open;dashed=1;endSize=8;exitX=0.06;exitY=0.673;exitDx=0;exitDy=0;exitPerimeter=0;entryX=1.106;entryY=0.371;entryDx=0;entryDy=0;entryPerimeter=0;" edge="1" parent="1" target="67">
                    <mxGeometry x="0.1146" y="-1" relative="1" as="geometry">
                        <mxPoint x="674.9999999999999" y="710" as="sourcePoint"/>
                        <mxPoint x="460" y="711" as="targetPoint"/>
                        <mxPoint as="offset"/>
                    </mxGeometry>
                </mxCell>
                <mxCell id="68" value="Afficher interface menu" style="html=1;verticalAlign=bottom;endArrow=open;dashed=1;endSize=8;entryX=1.182;entryY=0.852;entryDx=0;entryDy=0;entryPerimeter=0;exitX=-0.118;exitY=0.716;exitDx=0;exitDy=0;exitPerimeter=0;" edge="1" parent="1" source="67" target="5">
                    <mxGeometry x="0.1146" y="-1" relative="1" as="geometry">
                        <mxPoint x="410" y="721" as="sourcePoint"/>
                        <mxPoint x="239.99999999999994" y="721.1300000000001" as="targetPoint"/>
                        <mxPoint as="offset"/>
                    </mxGeometry>
                </mxCell>
            </root>
        </mxGraphModel>
    </diagram>
</mxfile>